<svg width="19" height="19" viewBox="0 0 19 19" fill="none" xmlns="http://www.w3.org/2000/svg">
<g clip-path="url(#clip0_1_1482)">
<path fill-rule="evenodd" clip-rule="evenodd" d="M9.42981 1.14697C9.46781 1.14697 9.50425 1.16286 9.53113 1.19114C9.558 1.21941 9.57309 1.25777 9.57309 1.29776V18.3209C9.57457 18.3415 9.57197 18.3623 9.56546 18.3819C9.55895 18.4015 9.54867 18.4195 9.53526 18.4347C9.52184 18.4499 9.50559 18.4621 9.48752 18.4704C9.46944 18.4787 9.44993 18.4829 9.43021 18.4829C9.41049 18.4829 9.39098 18.4787 9.37291 18.4704C9.35483 18.4621 9.33858 18.4499 9.32516 18.4347C9.31175 18.4195 9.30147 18.4015 9.29496 18.3819C9.28845 18.3623 9.28585 18.3415 9.28733 18.3209V1.29738C9.28742 1.2576 9.30245 1.21947 9.32914 1.1913C9.35582 1.16313 9.39201 1.1472 9.42981 1.14697V1.14697Z" fill="white"/>
<path fill-rule="evenodd" clip-rule="evenodd" d="M9.42983 4.53564C9.54288 4.53564 9.6534 4.57092 9.7474 4.63702C9.8414 4.70312 9.91467 4.79707 9.95793 4.90698C10.0012 5.0169 10.0125 5.13785 9.99046 5.25454C9.9684 5.37123 9.91396 5.47841 9.83402 5.56254C9.75408 5.64666 9.65223 5.70395 9.54134 5.72716C9.43046 5.75038 9.31553 5.73846 9.21108 5.69293C9.10663 5.6474 9.01736 5.5703 8.95455 5.47138C8.89174 5.37246 8.85822 5.25616 8.85822 5.13718C8.85822 4.97765 8.91844 4.82464 9.02564 4.71183C9.13284 4.59902 9.27823 4.53564 9.42983 4.53564V4.53564Z" fill="white"/>
<g filter="url(#filter0_d_1_1482)">
<path fill-rule="evenodd" clip-rule="evenodd" d="M2.23654 2.33008H7.04774C7.1488 2.33008 7.24572 2.37233 7.31718 2.44753C7.38864 2.52273 7.42878 2.62472 7.42878 2.73107V7.54339C7.42879 7.59606 7.41895 7.64821 7.3998 7.69687C7.38066 7.74553 7.35259 7.78975 7.31721 7.827C7.28182 7.86424 7.23981 7.89379 7.19358 7.91395C7.14734 7.9341 7.09778 7.94448 7.04774 7.94448H2.23654C2.1865 7.94449 2.13694 7.93413 2.0907 7.91398C2.04445 7.89384 2.00244 7.8643 1.96704 7.82706C1.93165 7.78983 1.90358 7.74562 1.88442 7.69696C1.86527 7.6483 1.85541 7.59615 1.85541 7.54348V2.73117C1.8554 2.67849 1.86525 2.62633 1.8844 2.57766C1.90355 2.52899 1.93162 2.48477 1.96701 2.44753C2.00241 2.41028 2.04443 2.38074 2.09067 2.36058C2.13692 2.34043 2.18649 2.33007 2.23654 2.33008V2.33008Z" fill="white"/>
</g>
<path fill-rule="evenodd" clip-rule="evenodd" d="M2.80823 6.24023H6.47629V6.49091H2.80823V6.24023Z" fill="#C8C8C8"/>
<path fill-rule="evenodd" clip-rule="evenodd" d="M2.80823 6.74121H5.04703V6.94176H2.80823V6.74121Z" fill="#CDCDCD"/>
<path fill-rule="evenodd" clip-rule="evenodd" d="M6.42863 3.33252H2.8555C2.84287 3.33252 2.83075 3.3378 2.82182 3.3472C2.81288 3.35661 2.80786 3.36936 2.80786 3.38266V5.78872C2.80786 5.80202 2.81288 5.81477 2.82182 5.82417C2.83075 5.83357 2.84287 5.83886 2.8555 5.83886H6.42863C6.44127 5.83886 6.45339 5.83357 6.46232 5.82417C6.47126 5.81477 6.47628 5.80202 6.47628 5.78872V3.38266C6.47628 3.36936 6.47126 3.35661 6.46232 3.3472C6.45339 3.3378 6.44127 3.33252 6.42863 3.33252V3.33252ZM6.33335 5.68854H2.95114V3.4833H6.33335V5.68854ZM3.95126 4.4423C4.00373 4.4423 4.05501 4.42593 4.09863 4.39526C4.14225 4.36458 4.17625 4.32099 4.19633 4.26998C4.2164 4.21898 4.22166 4.16285 4.21142 4.1087C4.20119 4.05455 4.17592 4.00481 4.13883 3.96578C4.10173 3.92674 4.05447 3.90015 4.00301 3.88938C3.95156 3.87861 3.89822 3.88414 3.84976 3.90527C3.80129 3.92639 3.75986 3.96217 3.73071 4.00808C3.70157 4.05398 3.68601 4.10795 3.68601 4.16316C3.6861 4.23718 3.71411 4.30815 3.76387 4.36046C3.81364 4.41278 3.8811 4.44218 3.95144 4.44221L3.95126 4.4423ZM3.95126 3.9842C3.98492 3.9842 4.01781 3.9947 4.04579 4.01437C4.07377 4.03405 4.09558 4.06201 4.10846 4.09473C4.12134 4.12745 4.12471 4.16345 4.11814 4.19819C4.11158 4.23292 4.09537 4.26482 4.07158 4.28987C4.04778 4.31491 4.01746 4.33196 3.98446 4.33887C3.95145 4.34578 3.91724 4.34223 3.88615 4.32868C3.85506 4.31513 3.82849 4.29218 3.80979 4.26273C3.79109 4.23329 3.78111 4.19867 3.78111 4.16325C3.78111 4.13972 3.78552 4.11642 3.79408 4.09469C3.80265 4.07295 3.81519 4.0532 3.83101 4.03657C3.84683 4.01994 3.86561 4.00676 3.88627 3.99777C3.90694 3.98878 3.92908 3.98417 3.95144 3.9842H3.95126ZM3.52276 5.33759C3.53433 5.33758 3.54551 5.33312 3.55419 5.32505L4.33132 4.60515L4.82207 5.12149C4.82644 5.12639 4.8317 5.13031 4.83753 5.13302C4.84337 5.13573 4.84967 5.13718 4.85605 5.13729C4.86243 5.13739 4.86876 5.13615 4.87467 5.13363C4.88059 5.1311 4.88596 5.12736 4.89047 5.12261C4.89498 5.11786 4.89854 5.11221 4.90094 5.10598C4.90334 5.09976 4.90452 5.0931 4.90442 5.08638C4.90432 5.07967 4.90294 5.07304 4.90036 5.0669C4.89779 5.06076 4.89406 5.05522 4.88941 5.05062L4.66043 4.80965L5.0978 4.30537L5.63422 4.82284C5.63883 4.82729 5.64424 4.83074 5.65012 4.83299C5.656 4.83525 5.66225 4.83626 5.6685 4.83597C5.67475 4.83568 5.68089 4.8341 5.68656 4.83131C5.69224 4.82853 5.69733 4.82459 5.70156 4.81973C5.70579 4.81488 5.70907 4.80919 5.71121 4.803C5.71334 4.79681 5.7143 4.79024 5.71403 4.78366C5.71376 4.77708 5.71225 4.77062 5.70961 4.76465C5.70696 4.75868 5.70322 4.75331 5.69861 4.74887L5.12699 4.19746C5.11758 4.18863 5.1053 4.18394 5.0927 4.18436C5.08006 4.18498 5.06818 4.19084 5.05965 4.20067L4.59299 4.73888L4.36705 4.50111C4.35848 4.49211 4.34697 4.48688 4.33486 4.48648C4.32276 4.48607 4.31096 4.49053 4.30186 4.49894L3.49123 5.25004C3.48404 5.25679 3.47896 5.26568 3.47667 5.27553C3.47438 5.28538 3.47498 5.29573 3.4784 5.30522C3.48181 5.3147 3.48788 5.32287 3.4958 5.32865C3.50372 5.33443 3.51312 5.33755 3.52276 5.33759V5.33759Z" fill="#CDCDCD"/>
<path fill-rule="evenodd" clip-rule="evenodd" d="M9.42981 4.83643C9.48635 4.83641 9.54163 4.85404 9.58865 4.88708C9.63567 4.92013 9.67233 4.96711 9.69397 5.02208C9.71562 5.07705 9.72129 5.13754 9.71026 5.19591C9.69923 5.25427 9.67201 5.30788 9.63202 5.34995C9.59204 5.39203 9.5411 5.42068 9.48564 5.43228C9.43018 5.44389 9.3727 5.43792 9.32046 5.41514C9.26823 5.39236 9.22358 5.35379 9.19218 5.30431C9.16078 5.25483 9.14403 5.19665 9.14404 5.13715C9.14407 5.0574 9.17418 4.98092 9.22777 4.92453C9.28135 4.86814 9.35402 4.83645 9.42981 4.83643Z" fill="url(#paint0_linear_1_1482)"/>
<path d="M9.42929 10.4101C9.74459 10.4101 10.0002 10.1411 10.0002 9.80928C10.0002 9.47748 9.74459 9.2085 9.42929 9.2085C9.114 9.2085 8.8584 9.47748 8.8584 9.80928C8.8584 10.1411 9.114 10.4101 9.42929 10.4101Z" fill="white"/>
<g filter="url(#filter1_d_1_1482)">
<path fill-rule="evenodd" clip-rule="evenodd" d="M11.8119 7.00195H16.6232C16.6733 7.00194 16.7228 7.0123 16.7691 7.03245C16.8153 7.0526 16.8573 7.08213 16.8927 7.11937C16.9281 7.15661 16.9562 7.20082 16.9753 7.24947C16.9945 7.29813 17.0043 7.35028 17.0043 7.40295V12.2153C17.0043 12.2679 16.9945 12.3201 16.9753 12.3687C16.9562 12.4174 16.9281 12.4616 16.8927 12.4988C16.8573 12.5361 16.8153 12.5656 16.7691 12.5858C16.7228 12.6059 16.6733 12.6163 16.6232 12.6163H11.8119C11.7619 12.6163 11.7123 12.6059 11.6661 12.5858C11.6198 12.5656 11.5778 12.5361 11.5424 12.4988C11.507 12.4616 11.479 12.4174 11.4598 12.3687C11.4406 12.3201 11.4308 12.2679 11.4308 12.2153V7.40295C11.4308 7.35028 11.4406 7.29813 11.4598 7.24947C11.479 7.20082 11.507 7.15661 11.5424 7.11937C11.5778 7.08213 11.6198 7.0526 11.6661 7.03245C11.7123 7.0123 11.7619 7.00194 11.8119 7.00195V7.00195Z" fill="white"/>
</g>
<path fill-rule="evenodd" clip-rule="evenodd" d="M12.3832 10.9116H16.0513V11.1623H12.3832V10.9116Z" fill="#C8C8C8"/>
<path fill-rule="evenodd" clip-rule="evenodd" d="M12.3832 11.4131H14.6221V11.6136H12.3832V11.4131Z" fill="#CDCDCD"/>
<path fill-rule="evenodd" clip-rule="evenodd" d="M16.0036 8.00439H12.4305C12.4179 8.00439 12.4058 8.00968 12.3968 8.01908C12.3879 8.02848 12.3829 8.04123 12.3829 8.05453V10.4607C12.3829 10.474 12.3879 10.4867 12.3968 10.4961C12.4058 10.5055 12.4179 10.5108 12.4305 10.5108H16.0036C16.0163 10.5108 16.0284 10.5055 16.0373 10.4961C16.0463 10.4867 16.0513 10.474 16.0513 10.4607V8.05453C16.0513 8.04123 16.0463 8.02848 16.0373 8.01908C16.0284 8.00968 16.0163 8.00439 16.0036 8.00439ZM15.9084 10.3604H12.5262V8.15518H15.9084V10.3604V10.3604ZM13.5263 9.11418C13.5787 9.11416 13.63 9.09777 13.6736 9.06709C13.7172 9.0364 13.7512 8.9928 13.7713 8.94179C13.7913 8.89078 13.7966 8.83466 13.7863 8.78052C13.7761 8.72638 13.7508 8.67665 13.7137 8.63762C13.6766 8.59859 13.6294 8.57201 13.5779 8.56125C13.5264 8.55049 13.4731 8.55602 13.4247 8.57715C13.3762 8.59828 13.3348 8.63406 13.3056 8.67996C13.2765 8.72586 13.2609 8.77983 13.2609 8.83503C13.261 8.90911 13.289 8.98012 13.3388 9.03247C13.3886 9.08481 13.4562 9.1142 13.5265 9.11418H13.5263ZM13.5263 8.65607C13.5599 8.65607 13.5928 8.66657 13.6208 8.68625C13.6488 8.70592 13.6706 8.73389 13.6835 8.76661C13.6964 8.79932 13.6997 8.83533 13.6932 8.87006C13.6866 8.90479 13.6704 8.9367 13.6466 8.96174C13.6228 8.98678 13.5925 9.00384 13.5595 9.01075C13.5265 9.01765 13.4923 9.01411 13.4612 9.00056C13.4301 8.987 13.4035 8.96405 13.3848 8.93461C13.3661 8.90516 13.3561 8.87054 13.3561 8.83513C13.3561 8.81159 13.3605 8.78828 13.3691 8.76654C13.3777 8.7448 13.3902 8.72505 13.4061 8.70842C13.4219 8.69178 13.4407 8.6786 13.4613 8.66962C13.482 8.66064 13.5042 8.65603 13.5265 8.65607H13.5263ZM13.0975 10.0096C13.1091 10.0098 13.1204 10.0055 13.1292 9.9975L13.9063 9.27759L14.3971 9.79394C14.4015 9.79883 14.4067 9.80275 14.4125 9.80546C14.4184 9.80817 14.4247 9.80963 14.4311 9.80973C14.4374 9.80983 14.4438 9.80859 14.4497 9.80607C14.4556 9.80355 14.461 9.7998 14.4655 9.79505C14.47 9.7903 14.4736 9.78465 14.476 9.77843C14.4783 9.7722 14.4795 9.76554 14.4794 9.75882C14.4793 9.75211 14.478 9.74548 14.4754 9.73934C14.4728 9.7332 14.4691 9.72766 14.4644 9.72307L14.2354 9.48209L14.6728 8.97809L15.2092 9.49557C15.2138 9.50018 15.2192 9.50378 15.2251 9.50616C15.2311 9.50854 15.2374 9.50965 15.2437 9.50943C15.2501 9.50921 15.2563 9.50767 15.262 9.50488C15.2678 9.50209 15.273 9.49813 15.2773 9.49321C15.2815 9.48829 15.2849 9.48253 15.287 9.47625C15.2891 9.46997 15.2901 9.4633 15.2897 9.45664C15.2894 9.44998 15.2878 9.44346 15.285 9.43746C15.2823 9.43145 15.2784 9.42609 15.2736 9.42168L14.702 8.87028C14.6926 8.86146 14.6803 8.85678 14.6677 8.85718C14.6551 8.8578 14.6431 8.86366 14.6346 8.87348L14.1681 9.41122L13.9421 9.17345C13.9335 9.16446 13.922 9.15923 13.9099 9.15883C13.8978 9.15843 13.886 9.16288 13.877 9.17129L13.0663 9.92239C13.0593 9.92916 13.0543 9.93801 13.0521 9.94779C13.0499 9.95756 13.0505 9.96782 13.0539 9.97722C13.0573 9.98661 13.0633 9.99472 13.0711 10.0005C13.0789 10.0063 13.0882 10.0094 13.0978 10.0096H13.0975Z" fill="#CDCDCD"/>
<path d="M9.42926 10.1095C9.58689 10.1095 9.71467 9.97501 9.71467 9.80913C9.71467 9.64326 9.58689 9.50879 9.42926 9.50879C9.27164 9.50879 9.14386 9.64326 9.14386 9.80913C9.14386 9.97501 9.27164 10.1095 9.42926 10.1095Z" fill="url(#paint1_linear_1_1482)"/>
<path fill-rule="evenodd" clip-rule="evenodd" d="M9.42983 13.8794C9.54288 13.8794 9.6534 13.9147 9.7474 13.9808C9.8414 14.0469 9.91467 14.1408 9.95793 14.2507C10.0012 14.3607 10.0125 14.4816 9.99046 14.5983C9.9684 14.715 9.91396 14.8222 9.83402 14.9063C9.75408 14.9904 9.65223 15.0477 9.54134 15.0709C9.43046 15.0941 9.31553 15.0822 9.21108 15.0367C9.10663 14.9912 9.01736 14.9141 8.95455 14.8151C8.89174 14.7162 8.85822 14.5999 8.85822 14.4809C8.85824 14.3214 8.91847 14.1684 9.02566 14.0556C9.13286 13.9428 9.27823 13.8794 9.42983 13.8794V13.8794Z" fill="white"/>
<g filter="url(#filter2_d_1_1482)">
<path fill-rule="evenodd" clip-rule="evenodd" d="M2.23654 11.6738H7.04774C7.09778 11.6738 7.14734 11.6842 7.19358 11.7044C7.23981 11.7245 7.28182 11.7541 7.31721 11.7913C7.35259 11.8286 7.38066 11.8728 7.3998 11.9214C7.41895 11.9701 7.42879 12.0222 7.42878 12.0749V16.8871C7.42878 16.9935 7.38864 17.0955 7.31718 17.1707C7.24573 17.2459 7.14881 17.2882 7.04774 17.2882H2.23654C2.13546 17.2882 2.03852 17.246 1.96704 17.1707C1.89556 17.0955 1.85541 16.9935 1.85541 16.8871V12.0749C1.8554 12.0222 1.86525 11.9701 1.8844 11.9214C1.90355 11.8727 1.93162 11.8285 1.96701 11.7913C2.00241 11.754 2.04443 11.7245 2.09067 11.7043C2.13692 11.6842 2.18649 11.6738 2.23654 11.6738V11.6738Z" fill="white"/>
</g>
<path fill-rule="evenodd" clip-rule="evenodd" d="M2.80823 15.584H6.47629V15.8346H2.80823V15.584Z" fill="#C8C8C8"/>
<path fill-rule="evenodd" clip-rule="evenodd" d="M2.80823 16.0854H5.04703V16.2859H2.80823V16.0854Z" fill="#CDCDCD"/>
<path fill-rule="evenodd" clip-rule="evenodd" d="M6.42864 12.6763H2.8555C2.84287 12.6763 2.83075 12.6816 2.82182 12.691C2.81288 12.7004 2.80786 12.7131 2.80786 12.7264V15.1326C2.80786 15.1459 2.81288 15.1586 2.82182 15.168C2.83075 15.1774 2.84287 15.1827 2.8555 15.1827H6.42864C6.44127 15.1827 6.45339 15.1774 6.46233 15.168C6.47126 15.1586 6.47628 15.1459 6.47628 15.1326V12.7264C6.47628 12.7131 6.47126 12.7004 6.46233 12.691C6.45339 12.6816 6.44127 12.6763 6.42864 12.6763V12.6763ZM6.33336 15.0323H2.95114V12.8271H6.33336V15.0323ZM3.95144 13.786C4.00391 13.786 4.05519 13.7696 4.09881 13.7389C4.14243 13.7082 4.17643 13.6646 4.19651 13.6136C4.21658 13.5626 4.22184 13.5065 4.2116 13.4524C4.20137 13.3982 4.1761 13.3485 4.13901 13.3094C4.10191 13.2704 4.05465 13.2438 4.00319 13.233C3.95174 13.2223 3.8984 13.2278 3.84994 13.2489C3.80147 13.27 3.76004 13.3058 3.73089 13.3517C3.70175 13.3976 3.68619 13.4516 3.68619 13.5068C3.68629 13.5808 3.71426 13.6518 3.76399 13.7041C3.81371 13.7564 3.88112 13.7859 3.95144 13.786ZM3.95144 13.3278C3.9851 13.3278 4.01799 13.3384 4.04597 13.358C4.07395 13.3777 4.09576 13.4057 4.10864 13.4384C4.12152 13.4711 4.12489 13.5071 4.11832 13.5418C4.11176 13.5766 4.09555 13.6085 4.07176 13.6335C4.04796 13.6586 4.01764 13.6756 3.98464 13.6825C3.95163 13.6894 3.91742 13.6859 3.88633 13.6723C3.85524 13.6588 3.82867 13.6358 3.80997 13.6064C3.79127 13.5769 3.78129 13.5423 3.78129 13.5069C3.78132 13.4594 3.79926 13.4139 3.83116 13.3804C3.86307 13.3468 3.90633 13.3279 3.95144 13.3279V13.3278ZM3.52276 14.6812C3.53432 14.6812 3.54549 14.6768 3.55419 14.6688L4.33132 13.9488L4.82207 14.4652C4.83101 14.4746 4.84314 14.4799 4.85577 14.4799C4.86841 14.4799 4.88053 14.4746 4.88946 14.4652C4.89839 14.4558 4.9034 14.443 4.90339 14.4297C4.90339 14.4164 4.89836 14.4037 4.88941 14.3943L4.66043 14.1535L5.0978 13.6496L5.63422 14.1671C5.64354 14.176 5.65588 14.1808 5.6685 14.1802C5.68113 14.1796 5.69303 14.1738 5.70156 14.164C5.7101 14.1541 5.71459 14.1412 5.71403 14.1279C5.71348 14.1146 5.70793 14.1021 5.69861 14.0931L5.127 13.5417C5.1176 13.5328 5.10531 13.5281 5.0927 13.5286C5.08645 13.5289 5.08031 13.5304 5.07464 13.5332C5.06897 13.536 5.06388 13.5399 5.05965 13.5448L4.59309 14.0825L4.36715 13.8448C4.35857 13.8358 4.34706 13.8305 4.33496 13.8301C4.32285 13.8297 4.31105 13.8342 4.30195 13.8426L3.49132 14.5937C3.48414 14.6004 3.47906 14.6093 3.47677 14.6192C3.47447 14.629 3.47507 14.6393 3.47847 14.6488C3.48187 14.6583 3.48793 14.6665 3.49583 14.6723C3.50374 14.678 3.51313 14.6812 3.52276 14.6812V14.6812Z" fill="#CDCDCD"/>
<path fill-rule="evenodd" clip-rule="evenodd" d="M9.42981 14.1802C9.48635 14.1802 9.54163 14.1978 9.58865 14.2308C9.63567 14.2639 9.67233 14.3109 9.69397 14.3658C9.71562 14.4208 9.72129 14.4813 9.71026 14.5397C9.69923 14.598 9.67201 14.6516 9.63202 14.6937C9.59204 14.7358 9.5411 14.7644 9.48564 14.776C9.43018 14.7876 9.3727 14.7817 9.32046 14.7589C9.26823 14.7361 9.22358 14.6976 9.19218 14.6481C9.16078 14.5986 9.14403 14.5404 9.14404 14.4809C9.14407 14.4012 9.17418 14.3247 9.22777 14.2683C9.28135 14.2119 9.35402 14.1802 9.42981 14.1802V14.1802Z" fill="url(#paint2_linear_1_1482)"/>
</g>
<defs>
<filter id="filter0_d_1_1482" x="-6.14459" y="-5.66992" width="21.5734" height="21.6143" filterUnits="userSpaceOnUse" color-interpolation-filters="sRGB">
<feFlood flood-opacity="0" result="BackgroundImageFix"/>
<feColorMatrix in="SourceAlpha" type="matrix" values="0 0 0 0 0 0 0 0 0 0 0 0 0 0 0 0 0 0 127 0" result="hardAlpha"/>
<feOffset/>
<feGaussianBlur stdDeviation="4"/>
<feColorMatrix type="matrix" values="0 0 0 0 0 0 0 0 0 0 0 0 0 0 0 0 0 0 0.3 0"/>
<feBlend mode="normal" in2="BackgroundImageFix" result="effect1_dropShadow_1_1482"/>
<feBlend mode="normal" in="SourceGraphic" in2="effect1_dropShadow_1_1482" result="shape"/>
</filter>
<filter id="filter1_d_1_1482" x="3.43079" y="-0.998047" width="21.5735" height="21.6143" filterUnits="userSpaceOnUse" color-interpolation-filters="sRGB">
<feFlood flood-opacity="0" result="BackgroundImageFix"/>
<feColorMatrix in="SourceAlpha" type="matrix" values="0 0 0 0 0 0 0 0 0 0 0 0 0 0 0 0 0 0 127 0" result="hardAlpha"/>
<feOffset/>
<feGaussianBlur stdDeviation="4"/>
<feColorMatrix type="matrix" values="0 0 0 0 0 0 0 0 0 0 0 0 0 0 0 0 0 0 0.3 0"/>
<feBlend mode="normal" in2="BackgroundImageFix" result="effect1_dropShadow_1_1482"/>
<feBlend mode="normal" in="SourceGraphic" in2="effect1_dropShadow_1_1482" result="shape"/>
</filter>
<filter id="filter2_d_1_1482" x="-6.14459" y="3.67383" width="21.5734" height="21.6143" filterUnits="userSpaceOnUse" color-interpolation-filters="sRGB">
<feFlood flood-opacity="0" result="BackgroundImageFix"/>
<feColorMatrix in="SourceAlpha" type="matrix" values="0 0 0 0 0 0 0 0 0 0 0 0 0 0 0 0 0 0 127 0" result="hardAlpha"/>
<feOffset/>
<feGaussianBlur stdDeviation="4"/>
<feColorMatrix type="matrix" values="0 0 0 0 0 0 0 0 0 0 0 0 0 0 0 0 0 0 0.3 0"/>
<feBlend mode="normal" in2="BackgroundImageFix" result="effect1_dropShadow_1_1482"/>
<feBlend mode="normal" in="SourceGraphic" in2="effect1_dropShadow_1_1482" result="shape"/>
</filter>
<linearGradient id="paint0_linear_1_1482" x1="9.14404" y1="4.81702" x2="9.74681" y2="5.42676" gradientUnits="userSpaceOnUse">
<stop stop-color="#00BF8F"/>
<stop offset="1" stop-color="#135445"/>
</linearGradient>
<linearGradient id="paint1_linear_1_1482" x1="9.14386" y1="9.48941" x2="9.74568" y2="10.0982" gradientUnits="userSpaceOnUse">
<stop stop-color="#00BF8F"/>
<stop offset="1" stop-color="#135445"/>
</linearGradient>
<linearGradient id="paint2_linear_1_1482" x1="9.14404" y1="14.1608" x2="9.74682" y2="14.7705" gradientUnits="userSpaceOnUse">
<stop stop-color="#00BF8F"/>
<stop offset="1" stop-color="#135445"/>
</linearGradient>
<clipPath id="clip0_1_1482">
<rect width="18" height="18" fill="white" transform="translate(0.465637 0.856445)"/>
</clipPath>
</defs>
</svg>
