<svg width="110" height="109" viewBox="0 0 110 109" fill="none" xmlns="http://www.w3.org/2000/svg">
<circle cx="55.0001" cy="54.6175" r="52.8699" fill="url(#paint0_linear_1_99)" stroke="white" stroke-width="3"/>
<path fill-rule="evenodd" clip-rule="evenodd" d="M56.4097 18.2954C56.5779 18.2954 56.7392 18.362 56.8581 18.4805C56.977 18.599 57.0438 18.7597 57.0438 18.9273V90.2613C57.0503 90.3481 57.0388 90.4352 57.01 90.5173C56.9812 90.5994 56.9357 90.6747 56.8764 90.7384C56.817 90.8022 56.7451 90.853 56.6651 90.8878C56.5851 90.9226 56.4988 90.9406 56.4115 90.9406C56.3242 90.9406 56.2379 90.9226 56.1579 90.8878C56.0779 90.853 56.006 90.8022 55.9466 90.7384C55.8873 90.6747 55.8418 90.5994 55.813 90.5173C55.7841 90.4352 55.7726 90.3481 55.7792 90.2613V18.9257C55.7796 18.759 55.8461 18.5992 55.9642 18.4812C56.0823 18.3631 56.2424 18.2963 56.4097 18.2954V18.2954Z" fill="white"/>
<path fill-rule="evenodd" clip-rule="evenodd" d="M56.4097 32.4956C56.91 32.4956 57.3991 32.6434 57.8151 32.9204C58.231 33.1974 58.5553 33.5911 58.7467 34.0517C58.9382 34.5123 58.9883 35.0191 58.8907 35.5081C58.7931 35.997 58.5522 36.4462 58.1984 36.7987C57.8446 37.1512 57.3939 37.3913 56.9032 37.4886C56.4125 37.5858 55.9039 37.5359 55.4416 37.3451C54.9794 37.1544 54.5843 36.8313 54.3064 36.4167C54.0284 36.0022 53.8801 35.5149 53.8801 35.0163C53.8801 34.3478 54.1466 33.7066 54.621 33.2339C55.0954 32.7612 55.7388 32.4956 56.4097 32.4956V32.4956Z" fill="white"/>
<g filter="url(#filter0_d_1_99)">
<path fill-rule="evenodd" clip-rule="evenodd" d="M24.5765 23.2524H45.868C46.3152 23.2524 46.7441 23.4295 47.0603 23.7446C47.3766 24.0597 47.5542 24.4871 47.5542 24.9328V45.0984C47.5543 45.3191 47.5107 45.5377 47.426 45.7416C47.3413 45.9455 47.2171 46.1308 47.0605 46.2869C46.9039 46.443 46.718 46.5668 46.5134 46.6512C46.3087 46.7357 46.0894 46.7792 45.868 46.7792H24.5765C24.355 46.7792 24.1357 46.7358 23.931 46.6514C23.7264 46.567 23.5405 46.4432 23.3838 46.2872C23.2272 46.1311 23.103 45.9459 23.0182 45.742C22.9334 45.5381 22.8898 45.3195 22.8898 45.0988V24.9332C22.8897 24.7124 22.9333 24.4939 23.0181 24.2899C23.1028 24.086 23.2271 23.9007 23.3837 23.7446C23.5403 23.5885 23.7263 23.4647 23.931 23.3803C24.1356 23.2958 24.355 23.2524 24.5765 23.2524V23.2524Z" fill="white"/>
</g>
<path fill-rule="evenodd" clip-rule="evenodd" d="M27.1065 39.6377H43.3392V40.6882H27.1065V39.6377Z" fill="#C8C8C8"/>
<path fill-rule="evenodd" clip-rule="evenodd" d="M27.1065 41.7383H37.0141V42.5786H27.1065V41.7383Z" fill="#CDCDCD"/>
<path fill-rule="evenodd" clip-rule="evenodd" d="M43.1284 27.4541H27.3158C27.2599 27.4541 27.2062 27.4762 27.1667 27.5156C27.1272 27.555 27.1049 27.6085 27.1049 27.6642V37.7466C27.1049 37.8023 27.1272 37.8558 27.1667 37.8952C27.2062 37.9346 27.2599 37.9567 27.3158 37.9567H43.1284C43.1843 37.9567 43.2379 37.9346 43.2774 37.8952C43.317 37.8558 43.3392 37.8023 43.3392 37.7466V27.6642C43.3392 27.6085 43.317 27.555 43.2774 27.5156C43.2379 27.4762 43.1843 27.4541 43.1284 27.4541V27.4541ZM42.7067 37.3268H27.739V28.086H42.7067V37.3268ZM32.165 32.1046C32.3971 32.1046 32.6241 32.036 32.8171 31.9074C33.0102 31.7789 33.1606 31.5962 33.2495 31.3825C33.3383 31.1687 33.3616 30.9335 33.3163 30.7066C33.271 30.4797 33.1592 30.2713 32.995 30.1077C32.8308 29.9441 32.6217 29.8327 32.394 29.7876C32.1663 29.7425 31.9303 29.7656 31.7158 29.8542C31.5013 29.9427 31.3179 30.0926 31.1889 30.285C31.06 30.4773 30.9911 30.7035 30.9911 30.9348C30.9915 31.245 31.1155 31.5424 31.3357 31.7616C31.5559 31.9809 31.8545 32.1041 32.1658 32.1042L32.165 32.1046ZM32.165 30.1849C32.3139 30.1849 32.4595 30.2289 32.5833 30.3114C32.7071 30.3938 32.8036 30.511 32.8606 30.6481C32.9176 30.7852 32.9325 30.9361 32.9035 31.0816C32.8744 31.2272 32.8027 31.3609 32.6974 31.4658C32.5921 31.5707 32.4579 31.6422 32.3119 31.6711C32.1658 31.7001 32.0144 31.6852 31.8768 31.6284C31.7392 31.5717 31.6216 31.4755 31.5389 31.3521C31.4562 31.2287 31.412 31.0836 31.412 30.9352C31.412 30.8366 31.4315 30.739 31.4694 30.6479C31.5073 30.5568 31.5628 30.4741 31.6328 30.4044C31.7028 30.3347 31.7859 30.2795 31.8774 30.2418C31.9688 30.2041 32.0668 30.1848 32.1658 30.1849H32.165ZM30.2687 35.8562C30.3199 35.8561 30.3694 35.8375 30.4078 35.8037L33.8469 32.787L36.0186 34.9507C36.038 34.9712 36.0613 34.9876 36.0871 34.999C36.1129 35.0103 36.1408 35.0164 36.169 35.0169C36.1972 35.0173 36.2253 35.0121 36.2514 35.0015C36.2776 34.9909 36.3014 34.9752 36.3214 34.9553C36.3413 34.9354 36.3571 34.9118 36.3677 34.8857C36.3783 34.8596 36.3835 34.8317 36.3831 34.8035C36.3826 34.7754 36.3765 34.7476 36.3651 34.7219C36.3537 34.6962 36.3372 34.673 36.3167 34.6537L35.3033 33.6439L37.2389 31.5308L39.6127 33.6992C39.6332 33.7178 39.6571 33.7323 39.6831 33.7417C39.7091 33.7512 39.7368 33.7554 39.7645 33.7542C39.7921 33.753 39.8193 33.7463 39.8444 33.7347C39.8695 33.723 39.892 33.7065 39.9108 33.6862C39.9295 33.6658 39.944 33.642 39.9534 33.616C39.9629 33.5901 39.9672 33.5626 39.9659 33.535C39.9647 33.5074 39.9581 33.4803 39.9464 33.4553C39.9346 33.4303 39.9181 33.4078 39.8977 33.3892L37.3681 31.0786C37.3264 31.0416 37.2721 31.0219 37.2163 31.0237C37.1604 31.0263 37.1078 31.0508 37.07 31.092L35.0049 33.3473L34.005 32.351C33.9671 32.3133 33.9161 32.2914 33.8626 32.2897C33.809 32.288 33.7568 32.3067 33.7165 32.3419L30.1292 35.4893C30.0973 35.5176 30.0749 35.5549 30.0647 35.5961C30.0546 35.6374 30.0572 35.6808 30.0723 35.7205C30.0875 35.7603 30.1143 35.7945 30.1494 35.8188C30.1844 35.843 30.226 35.856 30.2687 35.8562V35.8562Z" fill="#CDCDCD"/>
<path fill-rule="evenodd" clip-rule="evenodd" d="M56.4097 33.7559C56.6599 33.7558 56.9045 33.8297 57.1126 33.9681C57.3207 34.1066 57.4829 34.3035 57.5787 34.5338C57.6745 34.7642 57.6996 35.0177 57.6508 35.2622C57.602 35.5068 57.4815 35.7314 57.3046 35.9078C57.1276 36.0841 56.9022 36.2041 56.6568 36.2528C56.4114 36.3014 56.157 36.2764 55.9258 36.1809C55.6946 36.0855 55.4971 35.9238 55.3581 35.7165C55.2191 35.5091 55.145 35.2654 55.1451 35.016C55.1452 34.6818 55.2785 34.3614 55.5156 34.1251C55.7527 33.8888 56.0743 33.756 56.4097 33.7559Z" fill="url(#paint1_linear_1_99)"/>
<path d="M56.4072 57.1113C57.8026 57.1113 58.9337 55.9841 58.9337 54.5937C58.9337 53.2033 57.8026 52.0762 56.4072 52.0762C55.0119 52.0762 53.8808 53.2033 53.8808 54.5937C53.8808 55.9841 55.0119 57.1113 56.4072 57.1113Z" fill="white"/>
<g filter="url(#filter1_d_1_99)">
<path fill-rule="evenodd" clip-rule="evenodd" d="M66.9514 42.8301H88.2433C88.4647 42.83 88.6841 42.8735 88.8887 42.9579C89.0933 43.0423 89.2793 43.1661 89.4359 43.3221C89.5925 43.4781 89.7168 43.6634 89.8015 43.8673C89.8863 44.0712 89.9299 44.2897 89.9299 44.5104V64.6761C89.9299 64.8968 89.8863 65.1153 89.8015 65.3192C89.7168 65.5231 89.5925 65.7084 89.4359 65.8644C89.2793 66.0204 89.0933 66.1442 88.8887 66.2286C88.6841 66.313 88.4647 66.3565 88.2433 66.3564H66.9514C66.7299 66.3565 66.5106 66.313 66.306 66.2286C66.1013 66.1442 65.9154 66.0204 65.7587 65.8644C65.6021 65.7084 65.4779 65.5231 65.3931 65.3192C65.3083 65.1153 65.2647 64.8968 65.2647 64.6761V44.5104C65.2647 44.2897 65.3083 44.0712 65.3931 43.8673C65.4779 43.6634 65.6021 43.4781 65.7587 43.3221C65.9154 43.1661 66.1013 43.0423 66.306 42.9579C66.5106 42.8735 66.7299 42.83 66.9514 42.8301V42.8301Z" fill="white"/>
</g>
<path fill-rule="evenodd" clip-rule="evenodd" d="M69.4799 59.2139H85.7125V60.2643H69.4799V59.2139Z" fill="#C8C8C8"/>
<path fill-rule="evenodd" clip-rule="evenodd" d="M69.4799 61.3154H79.3875V62.1558H69.4799V61.3154Z" fill="#CDCDCD"/>
<path fill-rule="evenodd" clip-rule="evenodd" d="M85.5016 47.0312H69.689C69.6331 47.0312 69.5795 47.0534 69.54 47.0928C69.5004 47.1322 69.4782 47.1856 69.4782 47.2413V57.3242C69.4782 57.3799 69.5004 57.4333 69.54 57.4727C69.5795 57.5121 69.6331 57.5343 69.689 57.5343H85.5016C85.5575 57.5343 85.6112 57.5121 85.6507 57.4727C85.6902 57.4333 85.7124 57.3799 85.7124 57.3242V47.2413C85.7124 47.1856 85.6902 47.1322 85.6507 47.0928C85.6112 47.0534 85.5575 47.0312 85.5016 47.0312ZM85.0799 56.904H70.1123V47.6631H85.0799V56.904V56.904ZM74.5382 51.6817C74.7704 51.6816 74.9973 51.613 75.1903 51.4844C75.3833 51.3558 75.5337 51.1731 75.6224 50.9593C75.7112 50.7456 75.7344 50.5104 75.6891 50.2835C75.6437 50.0567 75.5319 49.8483 75.3677 49.6847C75.2036 49.5212 74.9944 49.4098 74.7667 49.3647C74.539 49.3196 74.303 49.3428 74.0885 49.4313C73.8741 49.5199 73.6907 49.6698 73.5618 49.8622C73.4328 50.0545 73.364 50.2807 73.364 50.512C73.3643 50.8224 73.4883 51.12 73.7087 51.3393C73.9291 51.5587 74.2279 51.6818 74.5394 51.6817H74.5382ZM74.5382 49.762C74.6872 49.762 74.8327 49.8061 74.9566 49.8885C75.0804 49.9709 75.1769 50.0881 75.2339 50.2252C75.2909 50.3623 75.3058 50.5132 75.2767 50.6588C75.2477 50.8043 75.176 50.938 75.0707 51.0429C74.9654 51.1479 74.8312 51.2193 74.6851 51.2483C74.5391 51.2772 74.3877 51.2624 74.2501 51.2056C74.1125 51.1488 73.9949 51.0526 73.9121 50.9292C73.8294 50.8058 73.7852 50.6608 73.7852 50.5124C73.7852 50.4137 73.8048 50.3161 73.8427 50.225C73.8806 50.1339 73.9362 50.0511 74.0062 49.9814C74.0763 49.9117 74.1594 49.8565 74.2509 49.8188C74.3424 49.7812 74.4404 49.7619 74.5394 49.762H74.5382ZM72.6407 55.4337C72.6921 55.4346 72.7421 55.4166 72.781 55.3832L76.2201 52.3665L78.3919 54.5302C78.4112 54.5507 78.4345 54.5671 78.4603 54.5785C78.4862 54.5899 78.514 54.5959 78.5423 54.5964C78.5705 54.5968 78.5985 54.5916 78.6247 54.581C78.6509 54.5705 78.6746 54.5548 78.6946 54.5349C78.7146 54.515 78.7303 54.4913 78.7409 54.4652C78.7515 54.4391 78.7568 54.4112 78.7563 54.383C78.7559 54.3549 78.7498 54.3272 78.7384 54.3014C78.727 54.2757 78.7105 54.2525 78.6899 54.2332L77.6766 53.2234L79.6121 51.1115L81.986 53.2799C82.0063 53.2992 82.0302 53.3143 82.0564 53.3243C82.0826 53.3343 82.1106 53.3389 82.1386 53.338C82.1666 53.3371 82.1942 53.3306 82.2197 53.3189C82.2452 53.3072 82.2681 53.2906 82.287 53.27C82.306 53.2494 82.3206 53.2253 82.3301 53.1989C82.3396 53.1726 82.3437 53.1447 82.3422 53.1168C82.3407 53.0889 82.3336 53.0615 82.3214 53.0364C82.3091 53.0112 82.292 52.9888 82.2709 52.9703L79.7413 50.6597C79.6996 50.6227 79.6453 50.6031 79.5895 50.6048C79.5335 50.6074 79.4808 50.6319 79.4429 50.6731L77.3785 52.9265L76.3783 51.9301C76.3404 51.8924 76.2895 51.8705 76.236 51.8688C76.1825 51.8671 76.1304 51.8858 76.0902 51.921L72.5028 55.0684C72.4716 55.0968 72.4496 55.1339 72.4398 55.1749C72.43 55.2159 72.4328 55.2588 72.4478 55.2982C72.4628 55.3376 72.4893 55.3716 72.5239 55.3957C72.5585 55.4199 72.5996 55.4331 72.6419 55.4337H72.6407Z" fill="#CDCDCD"/>
<path d="M56.4073 55.8516C57.1048 55.8516 57.6703 55.2881 57.6703 54.593C57.6703 53.898 57.1048 53.3345 56.4073 53.3345C55.7097 53.3345 55.1442 53.898 55.1442 54.593C55.1442 55.2881 55.7097 55.8516 56.4073 55.8516Z" fill="url(#paint2_linear_1_99)"/>
<path fill-rule="evenodd" clip-rule="evenodd" d="M56.4097 71.6499C56.91 71.6499 57.3991 71.7977 57.8151 72.0747C58.231 72.3517 58.5553 72.7454 58.7467 73.206C58.9382 73.6666 58.9883 74.1734 58.8907 74.6624C58.7931 75.1513 58.5522 75.6005 58.1984 75.953C57.8446 76.3055 57.3939 76.5456 56.9032 76.6429C56.4125 76.7401 55.9039 76.6902 55.4416 76.4994C54.9794 76.3087 54.5843 75.9856 54.3064 75.571C54.0284 75.1565 53.8801 74.6692 53.8801 74.1706C53.8802 73.5021 54.1467 72.861 54.6211 72.3883C55.0955 71.9156 55.7388 71.65 56.4097 71.6499V71.6499Z" fill="white"/>
<g filter="url(#filter2_d_1_99)">
<path fill-rule="evenodd" clip-rule="evenodd" d="M24.5765 62.4077H45.868C46.0894 62.4077 46.3087 62.4512 46.5134 62.5357C46.718 62.6201 46.9039 62.7439 47.0605 62.9C47.2171 63.0561 47.3413 63.2414 47.426 63.4453C47.5107 63.6492 47.5543 63.8677 47.5542 64.0884V84.2537C47.5542 84.6994 47.3766 85.1268 47.0604 85.442C46.7441 85.7572 46.3152 85.9343 45.868 85.9344H24.5765C24.1291 85.9344 23.7001 85.7574 23.3838 85.4422C23.0675 85.127 22.8898 84.6995 22.8898 84.2537V64.0884C22.8897 63.8677 22.9333 63.6491 23.0181 63.4452C23.1028 63.2413 23.2271 63.056 23.3837 62.8999C23.5403 62.7438 23.7263 62.62 23.931 62.5355C24.1356 62.4511 24.355 62.4077 24.5765 62.4077V62.4077Z" fill="white"/>
</g>
<path fill-rule="evenodd" clip-rule="evenodd" d="M27.1065 78.7925H43.3392V79.8425H27.1065V78.7925Z" fill="#C8C8C8"/>
<path fill-rule="evenodd" clip-rule="evenodd" d="M27.1065 80.8945H37.0141V81.7345H27.1065V80.8945Z" fill="#CDCDCD"/>
<path fill-rule="evenodd" clip-rule="evenodd" d="M43.1284 66.6089H27.3158C27.2599 66.6089 27.2062 66.631 27.1667 66.6704C27.1272 66.7098 27.1049 66.7633 27.1049 66.819V76.9018C27.1049 76.9575 27.1272 77.011 27.1667 77.0504C27.2062 77.0898 27.2599 77.1119 27.3158 77.1119H43.1284C43.1843 77.1119 43.2379 77.0898 43.2774 77.0504C43.317 77.011 43.3392 76.9575 43.3392 76.9018V66.819C43.3392 66.7633 43.317 66.7098 43.2774 66.6704C43.2379 66.631 43.1843 66.6089 43.1284 66.6089V66.6089ZM42.7067 76.4816H27.739V67.2407H42.7067V76.4816ZM32.1658 71.2589C32.3979 71.2589 32.6249 71.1903 32.8179 71.0618C33.011 70.9333 33.1614 70.7506 33.2503 70.5369C33.3391 70.3231 33.3624 70.0879 33.3171 69.861C33.2718 69.6341 33.16 69.4257 32.9958 69.2621C32.8316 69.0985 32.6225 68.9871 32.3948 68.942C32.1671 68.8968 31.931 68.92 31.7166 69.0085C31.5021 69.0971 31.3187 69.247 31.1897 69.4394C31.0608 69.6317 30.9919 69.8579 30.9919 70.0892C30.9923 70.3993 31.1161 70.6966 31.3362 70.9159C31.5562 71.1352 31.8546 71.2585 32.1658 71.2589ZM32.1658 69.3393C32.3147 69.3393 32.4603 69.3833 32.5841 69.4657C32.7079 69.5482 32.8044 69.6654 32.8614 69.8025C32.9184 69.9396 32.9333 70.0904 32.9043 70.236C32.8752 70.3815 32.8035 70.5152 32.6982 70.6202C32.5929 70.7251 32.4587 70.7966 32.3127 70.8255C32.1666 70.8545 32.0152 70.8396 31.8776 70.7828C31.74 70.726 31.6224 70.6299 31.5397 70.5065C31.4569 70.3831 31.4128 70.238 31.4128 70.0896C31.4129 69.8907 31.4923 69.6999 31.6335 69.5593C31.7747 69.4187 31.9661 69.3397 32.1658 69.3397V69.3393ZM30.2687 75.0106C30.3198 75.0105 30.3692 74.992 30.4078 74.9585L33.8469 71.9413L36.0186 74.1055C36.0582 74.1448 36.1119 74.1669 36.1678 74.1669C36.2237 74.1669 36.2773 74.1447 36.3169 74.1053C36.3564 74.0658 36.3786 74.0124 36.3785 73.9566C36.3785 73.9009 36.3562 73.8475 36.3167 73.8081L35.3033 72.7991L37.2389 70.6875L39.6127 72.856C39.654 72.8936 39.7086 72.9134 39.7645 72.9109C39.8203 72.9085 39.873 72.884 39.9108 72.8429C39.9485 72.8018 39.9684 72.7474 39.9659 72.6917C39.9635 72.6361 39.9389 72.5836 39.8977 72.546L37.3681 70.2353C37.3265 70.1982 37.2721 70.1785 37.2163 70.1804C37.1886 70.1816 37.1615 70.1882 37.1364 70.1999C37.1113 70.2115 37.0887 70.228 37.07 70.2484L35.0053 72.5017L34.0054 71.5054C33.9675 71.4677 33.9165 71.4457 33.863 71.4441C33.8094 71.4424 33.7572 71.461 33.7169 71.4963L30.1295 74.6437C30.0977 74.672 30.0753 74.7092 30.0651 74.7504C30.055 74.7917 30.0576 74.835 30.0727 74.8748C30.0877 74.9145 30.1145 74.9487 30.1495 74.973C30.1845 74.9972 30.226 75.0103 30.2687 75.0106V75.0106Z" fill="#CDCDCD"/>
<path fill-rule="evenodd" clip-rule="evenodd" d="M56.4097 72.9111C56.6599 72.9111 56.9045 72.9849 57.1126 73.1234C57.3207 73.2619 57.4829 73.4588 57.5787 73.6891C57.6745 73.9195 57.6996 74.173 57.6508 74.4175C57.602 74.6621 57.4815 74.8867 57.3046 75.063C57.1276 75.2394 56.9022 75.3594 56.6568 75.408C56.4114 75.4567 56.157 75.4317 55.9258 75.3362C55.6946 75.2408 55.4971 75.0791 55.3581 74.8718C55.2191 74.6644 55.145 74.4206 55.1451 74.1713C55.1452 73.8371 55.2785 73.5166 55.5156 73.2803C55.7527 73.044 56.0743 72.9112 56.4097 72.9111V72.9111Z" fill="url(#paint3_linear_1_99)"/>
<defs>
<filter id="filter0_d_1_99" x="14.8898" y="15.2524" width="40.6644" height="39.5269" filterUnits="userSpaceOnUse" color-interpolation-filters="sRGB">
<feFlood flood-opacity="0" result="BackgroundImageFix"/>
<feColorMatrix in="SourceAlpha" type="matrix" values="0 0 0 0 0 0 0 0 0 0 0 0 0 0 0 0 0 0 127 0" result="hardAlpha"/>
<feOffset/>
<feGaussianBlur stdDeviation="4"/>
<feColorMatrix type="matrix" values="0 0 0 0 0 0 0 0 0 0 0 0 0 0 0 0 0 0 0.3 0"/>
<feBlend mode="normal" in2="BackgroundImageFix" result="effect1_dropShadow_1_99"/>
<feBlend mode="normal" in="SourceGraphic" in2="effect1_dropShadow_1_99" result="shape"/>
</filter>
<filter id="filter1_d_1_99" x="57.2647" y="34.8301" width="40.6652" height="39.5264" filterUnits="userSpaceOnUse" color-interpolation-filters="sRGB">
<feFlood flood-opacity="0" result="BackgroundImageFix"/>
<feColorMatrix in="SourceAlpha" type="matrix" values="0 0 0 0 0 0 0 0 0 0 0 0 0 0 0 0 0 0 127 0" result="hardAlpha"/>
<feOffset/>
<feGaussianBlur stdDeviation="4"/>
<feColorMatrix type="matrix" values="0 0 0 0 0 0 0 0 0 0 0 0 0 0 0 0 0 0 0.3 0"/>
<feBlend mode="normal" in2="BackgroundImageFix" result="effect1_dropShadow_1_99"/>
<feBlend mode="normal" in="SourceGraphic" in2="effect1_dropShadow_1_99" result="shape"/>
</filter>
<filter id="filter2_d_1_99" x="14.8898" y="54.4077" width="40.6644" height="39.5269" filterUnits="userSpaceOnUse" color-interpolation-filters="sRGB">
<feFlood flood-opacity="0" result="BackgroundImageFix"/>
<feColorMatrix in="SourceAlpha" type="matrix" values="0 0 0 0 0 0 0 0 0 0 0 0 0 0 0 0 0 0 127 0" result="hardAlpha"/>
<feOffset/>
<feGaussianBlur stdDeviation="4"/>
<feColorMatrix type="matrix" values="0 0 0 0 0 0 0 0 0 0 0 0 0 0 0 0 0 0 0.3 0"/>
<feBlend mode="normal" in2="BackgroundImageFix" result="effect1_dropShadow_1_99"/>
<feBlend mode="normal" in="SourceGraphic" in2="effect1_dropShadow_1_99" result="shape"/>
</filter>
<linearGradient id="paint0_linear_1_99" x1="2.13016" y1="-12.7224" x2="107.87" y2="113.053" gradientUnits="userSpaceOnUse">
<stop stop-color="#BC4E9C"/>
<stop offset="1" stop-color="#F80759"/>
</linearGradient>
<linearGradient id="paint1_linear_1_99" x1="55.1451" y1="33.4109" x2="57.6646" y2="36.4184" gradientUnits="userSpaceOnUse">
<stop stop-color="#BC4E9C"/>
<stop offset="1" stop-color="#F80759"/>
</linearGradient>
<linearGradient id="paint2_linear_1_99" x1="55.1442" y1="52.99" x2="57.6598" y2="55.9928" gradientUnits="userSpaceOnUse">
<stop stop-color="#BC4E9C"/>
<stop offset="1" stop-color="#F80759"/>
</linearGradient>
<linearGradient id="paint3_linear_1_99" x1="55.1451" y1="72.5661" x2="57.6646" y2="75.5737" gradientUnits="userSpaceOnUse">
<stop stop-color="#BC4E9C"/>
<stop offset="1" stop-color="#F80759"/>
</linearGradient>
</defs>
</svg>
